<svg xmlns="http://www.w3.org/2000/svg" width="1218.000000pt" height="1218.000000pt" viewBox="0 0 1218.000000 1218.000000" fill="#494E61">
<g transform="translate(0.000000,1218.000000) scale(0.100000,-0.100000)" stroke="none">
<path d="M11470 12014 c-109 -23 -233 -91 -335 -185 -188 -171 -874 -839
-2265 -2204 -432 -424 -850 -834 -930 -912 l-145 -141 -420 410 c-443 433
-529 511 -625 569 -137 84 -358 128 -502 100 -132 -26 -190 -67 -520 -362
l-167 -149 -65 41 c-80 50 -170 79 -244 79 -117 -1 -279 -49 -390 -118 -33
-20 -1113 -791 -2400 -1712 -1914 -1370 -2339 -1677 -2332 -1690 20 -37 471
-482 551 -543 170 -131 290 -176 431 -162 l68 6 -8 -33 c-4 -18 -7 -71 -7
-118 1 -75 5 -94 34 -155 45 -97 121 -192 259 -327 145 -141 213 -193 286
-218 79 -28 189 -42 276 -34 l76 6 -4 -98 c-6 -166 32 -280 145 -434 107 -145
373 -388 496 -454 80 -42 184 -60 311 -53 61 4 120 9 131 12 19 6 20 1 20
-158 l0 -164 43 -87 c74 -149 179 -275 382 -460 169 -154 207 -181 289 -208
55 -17 90 -21 206 -21 l140 0 2 -111 c3 -137 27 -237 85 -349 48 -92 140 -196
233 -262 33 -24 71 -56 85 -71 40 -44 139 -103 209 -125 51 -16 92 -21 176
-21 l110 0 3 -72 c4 -87 33 -232 61 -306 44 -116 157 -236 447 -478 157 -131
170 -140 185 -124 30 31 3347 4577 3388 4643 23 36 55 104 73 150 26 70 32
102 36 198 5 124 -5 187 -45 289 l-25 64 135 136 c138 141 221 253 271 366
106 240 77 531 -74 743 -27 37 -238 261 -469 497 -232 236 -421 432 -421 437
0 7 1565 1615 2886 2966 381 389 447 461 473 515 52 106 65 175 64 340 -2 218
-34 310 -148 416 -136 127 -331 178 -525 136z m213 -335 c50 -13 103 -61 118
-106 16 -49 7 -226 -14 -276 -11 -25 -102 -125 -255 -280 -197 -201 -1949
-1997 -2822 -2894 l-235 -241 -219 218 c-120 120 -217 223 -215 229 4 11 315
317 1595 1571 1307 1281 1725 1686 1789 1729 84 58 171 75 258 50z m-5170
-2389 c32 -12 90 -48 130 -80 108 -87 909 -871 903 -885 -4 -11 907 -929 930
-936 7 -2 201 -197 433 -434 443 -453 467 -481 490 -593 26 -124 1 -235 -79
-354 -30 -45 -130 -154 -259 -283 -116 -115 -211 -213 -211 -217 0 -5 29 -50
64 -101 35 -52 71 -118 81 -148 35 -103 19 -222 -44 -320 -30 -47 -3145 -4315
-3166 -4337 -10 -11 -34 7 -128 100 -102 100 -117 119 -131 168 -48 161 -43
274 19 421 l35 84 -86 86 -87 87 -61 -27 c-93 -42 -179 -70 -254 -82 -91 -16
-139 -2 -206 60 -28 26 -74 64 -102 84 -70 50 -131 119 -154 173 -48 110 -50
262 -7 432 l23 91 -81 79 -80 79 -95 -23 c-126 -31 -283 -49 -344 -40 -42 7
-60 18 -150 99 -208 187 -323 322 -362 422 -14 38 -15 57 -5 142 6 54 23 161
38 237 l27 139 -30 24 c-16 13 -54 43 -84 67 l-55 44 -60 -19 c-198 -62 -397
-85 -468 -55 -82 35 -334 275 -408 389 -52 80 -62 117 -56 201 5 82 22 135 83
265 31 65 41 98 34 106 -5 6 -48 38 -95 70 l-85 59 -113 -27 c-240 -56 -360
-59 -426 -10 -66 49 -242 227 -288 291 -43 59 -45 66 -39 109 8 60 74 183 165
307 l72 100 -104 103 -103 104 -117 -55 c-218 -102 -342 -133 -408 -102 -56
26 -157 107 -269 214 -93 89 -103 102 -90 115 25 25 4376 3135 4411 3153 54
28 140 54 177 54 43 0 102 -37 236 -147 l99 -82 61 56 c406 370 600 540 641
559 43 21 165 12 238 -16z"/>
<path d="M5954 8606 c-125 -55 -132 -240 -11 -302 39 -21 115 -21 154 -1 93
49 122 170 59 252 -46 60 -132 81 -202 51z"/>
<path d="M6459 8098 c-76 -43 -104 -158 -56 -229 36 -53 82 -79 142 -79 128 0
207 137 144 250 -43 76 -152 104 -230 58z"/>
<path d="M4720 7938 c-60 -41 -75 -71 -75 -151 0 -58 4 -78 22 -103 65 -91
228 -90 287 1 24 36 36 111 25 151 -13 44 -55 93 -96 110 -51 22 -124 18 -163
-8z"/>
<path d="M6984 7606 c-40 -18 -91 -80 -99 -122 -10 -58 4 -103 49 -149 45 -47
90 -62 151 -51 43 8 103 59 121 103 57 135 -87 277 -222 219z"/>
<path d="M4200 7573 c-95 -36 -139 -163 -88 -255 75 -134 278 -105 319 45 22
80 -22 171 -98 203 -32 14 -104 18 -133 7z"/>
<path d="M5465 7239 c-71 -20 -126 -121 -111 -202 8 -45 58 -105 103 -123 81
-34 180 0 220 76 76 144 -52 296 -212 249z"/>
<path d="M3595 7146 c-94 -41 -130 -171 -71 -258 49 -73 162 -97 238 -50 77
48 102 176 48 252 -43 60 -145 87 -215 56z"/>
<path d="M7479 7078 c-76 -43 -104 -158 -56 -229 36 -53 82 -79 142 -79 128 0
207 137 144 250 -43 76 -152 104 -230 58z"/>
<path d="M4924 6821 c-132 -60 -134 -243 -4 -308 54 -28 101 -29 156 -4 65 29
89 72 89 156 0 58 -4 76 -24 104 -46 65 -139 87 -217 52z"/>
<path d="M3021 6683 c-106 -52 -117 -225 -19 -295 49 -34 151 -38 197 -6 61
41 76 71 76 148 0 76 -16 107 -75 148 -41 27 -128 30 -179 5z"/>
<path d="M8000 6567 c-141 -75 -103 -283 57 -313 49 -9 118 21 157 69 26 32
30 47 31 96 0 71 -30 122 -91 151 -53 26 -101 25 -154 -3z"/>
<path d="M6278 6390 c-54 -29 -81 -73 -86 -141 -4 -49 0 -65 22 -103 47 -80
141 -107 226 -63 103 51 128 179 53 268 -51 60 -143 76 -215 39z"/>
<path d="M4366 6380 c-41 -13 -83 -57 -102 -106 -43 -114 41 -234 164 -234
128 0 209 137 151 256 -11 24 -35 53 -54 64 -39 24 -116 34 -159 20z"/>
<path d="M2472 6273 c-94 -46 -127 -167 -68 -256 26 -39 98 -77 146 -77 54 0
121 38 148 85 31 54 27 145 -7 194 -45 63 -149 89 -219 54z"/>
<path d="M8554 6071 c-75 -19 -126 -85 -126 -166 0 -105 91 -179 200 -161 130
21 178 193 79 287 -38 36 -101 52 -153 40z"/>
<path d="M5816 5946 c-81 -30 -122 -98 -114 -188 9 -87 65 -139 157 -146 48
-3 67 0 98 17 93 53 118 181 52 265 -42 53 -126 76 -193 52z"/>
<path d="M3799 5877 c-18 -12 -44 -38 -57 -57 -20 -30 -23 -45 -20 -100 6
-105 66 -164 168 -164 102 0 162 59 168 164 3 55 0 70 -20 100 -38 56 -82 80
-148 80 -43 0 -65 -6 -91 -23z"/>
<path d="M1920 5841 c-116 -61 -117 -237 -3 -304 41 -24 128 -26 170 -3 122
62 121 252 0 310 -47 22 -124 21 -167 -3z"/>
<path d="M7166 5570 c-16 -5 -44 -24 -63 -42 -111 -108 -31 -298 125 -298 59
0 122 38 149 90 76 144 -53 297 -211 250z"/>
<path d="M3270 5437 c-82 -43 -112 -145 -69 -233 24 -51 69 -82 131 -90 58 -8
107 8 145 49 139 146 -29 368 -207 274z"/>
<path d="M5262 5439 c-63 -32 -96 -92 -90 -168 5 -69 32 -113 88 -141 73 -37
162 -21 213 39 75 89 50 217 -53 269 -55 28 -103 28 -158 1z"/>
<path d="M6691 5063 c-111 -55 -116 -235 -7 -302 48 -30 141 -29 186 2 59 40
75 71 75 147 0 76 -16 107 -75 148 -41 27 -128 30 -179 5z"/>
<path d="M2777 4995 c-102 -36 -144 -140 -98 -241 26 -57 72 -87 141 -92 43
-3 66 1 97 17 136 69 113 280 -35 321 -47 13 -58 12 -105 -5z"/>
<path d="M4787 4916 c-21 -8 -47 -22 -57 -31 -53 -48 -68 -166 -27 -225 40
-59 71 -75 147 -75 77 0 107 15 148 76 32 46 28 148 -6 197 -43 60 -133 85
-205 58z"/>
<path d="M7848 4900 c-74 -22 -118 -84 -118 -164 0 -126 102 -200 227 -167 79
22 130 111 114 200 -11 57 -37 91 -91 119 -45 23 -85 26 -132 12z"/>
<path d="M6208 4520 c-54 -29 -81 -73 -86 -141 -3 -46 0 -65 19 -99 98 -175
366 -66 319 130 -26 108 -151 163 -252 110z"/>
<path d="M4285 4426 c-131 -58 -140 -247 -15 -313 94 -50 205 -12 246 84 61
142 -90 292 -231 229z"/>
<path d="M7414 4366 c-123 -54 -133 -235 -18 -307 44 -27 125 -29 171 -6 37
20 81 70 89 103 11 42 -2 124 -23 152 -36 48 -81 72 -137 72 -28 -1 -65 -7
-82 -14z"/>
<path d="M5784 3959 c-71 -20 -123 -119 -105 -200 20 -88 97 -145 185 -135
103 11 162 82 154 185 -9 120 -112 186 -234 150z"/>
<path d="M3783 3915 c-47 -29 -83 -92 -83 -146 0 -48 38 -119 77 -145 66 -44
152 -39 214 13 83 70 76 211 -13 274 -50 36 -140 38 -195 4z"/>
<path d="M6989 3800 c-101 -30 -147 -143 -100 -246 24 -53 71 -86 131 -92 93
-9 168 42 191 128 34 132 -90 250 -222 210z"/>
<path d="M5325 3426 c-139 -62 -133 -267 10 -322 154 -58 293 106 212 251 -40
71 -146 105 -222 71z"/>
<path d="M6583 3199 c-46 -14 -98 -69 -110 -117 -19 -76 7 -149 71 -196 40
-30 153 -30 193 0 73 54 95 151 53 233 -34 68 -128 104 -207 80z"/>
<path d="M4900 2893 c-38 -15 -74 -50 -91 -87 -61 -135 51 -279 192 -247 57
13 89 38 117 92 18 34 22 54 18 91 -11 101 -63 151 -161 155 -33 1 -67 0 -75
-4z"/>
<path d="M6167 2635 c-139 -49 -156 -241 -29 -313 49 -27 112 -28 168 -3 102
47 126 184 47 271 -51 57 -112 72 -186 45z"/>
<path d="M5754 2062 c-85 -40 -118 -145 -74 -236 66 -138 280 -116 320 32 19
73 -9 148 -72 195 -39 29 -122 33 -174 9z"/>
</g>
</svg>
