<svg fill="#494E61" xmlns="http://www.w3.org/2000/svg" width="80px" height="80px" viewBox="0 0 80 80">
<g id="surface1">
<path d="M 75.3125 1.089844 C 74.597656 1.242188 73.78125 1.6875 73.113281 2.304688 C 71.878906 3.425781 67.375 7.8125 58.242188 16.777344 C 55.402344 19.558594 52.660156 22.253906 52.132812 22.765625 L 51.183594 23.691406 L 48.425781 20.996094 C 45.515625 18.15625 44.949219 17.644531 44.320312 17.261719 C 43.421875 16.710938 41.96875 16.421875 41.023438 16.605469 C 40.15625 16.777344 39.777344 17.046875 37.609375 18.980469 L 36.511719 19.960938 L 36.085938 19.691406 C 35.5625 19.363281 34.96875 19.171875 34.484375 19.171875 C 33.714844 19.179688 32.652344 19.496094 31.925781 19.949219 C 31.707031 20.078125 24.617188 25.140625 16.164062 31.1875 C 3.597656 40.183594 0.808594 42.199219 0.855469 42.285156 C 0.984375 42.527344 3.945312 45.449219 4.472656 45.851562 C 5.585938 46.710938 6.375 47.007812 7.300781 46.914062 L 7.746094 46.875 L 7.695312 47.089844 C 7.667969 47.210938 7.648438 47.558594 7.648438 47.867188 C 7.65625 48.359375 7.683594 48.484375 7.871094 48.882812 C 8.167969 49.519531 8.667969 50.144531 9.574219 51.03125 C 10.523438 51.957031 10.972656 52.296875 11.449219 52.460938 C 11.96875 52.644531 12.691406 52.738281 13.261719 52.683594 L 13.761719 52.644531 L 13.734375 53.289062 C 13.695312 54.378906 13.945312 55.128906 14.6875 56.140625 C 15.390625 57.089844 17.136719 58.6875 17.945312 59.121094 C 18.46875 59.394531 19.152344 59.515625 19.988281 59.46875 C 20.386719 59.441406 20.773438 59.410156 20.847656 59.390625 C 20.972656 59.351562 20.976562 59.382812 20.976562 60.425781 L 20.976562 61.503906 L 21.261719 62.074219 C 21.746094 63.054688 22.4375 63.878906 23.769531 65.09375 C 24.878906 66.105469 25.128906 66.285156 25.667969 66.460938 C 26.027344 66.574219 26.257812 66.597656 27.019531 66.597656 L 27.9375 66.597656 L 27.953125 67.328125 C 27.972656 68.226562 28.128906 68.882812 28.507812 69.621094 C 28.824219 70.222656 29.429688 70.90625 30.039062 71.339844 C 30.257812 71.496094 30.503906 71.707031 30.597656 71.804688 C 30.859375 72.09375 31.511719 72.480469 31.96875 72.625 C 32.304688 72.730469 32.574219 72.765625 33.125 72.765625 L 33.847656 72.765625 L 33.867188 73.238281 C 33.894531 73.808594 34.085938 74.761719 34.269531 75.246094 C 34.558594 76.007812 35.296875 76.796875 37.203125 78.386719 C 38.234375 79.246094 38.320312 79.304688 38.417969 79.199219 C 38.613281 78.996094 60.394531 49.144531 60.664062 48.714844 C 60.8125 48.476562 61.023438 48.03125 61.140625 47.726562 C 61.3125 47.269531 61.351562 47.058594 61.378906 46.429688 C 61.410156 45.613281 61.347656 45.199219 61.082031 44.53125 L 60.917969 44.109375 L 61.804688 43.21875 C 62.710938 42.292969 63.257812 41.554688 63.585938 40.8125 C 64.28125 39.238281 64.089844 37.328125 63.097656 35.9375 C 62.921875 35.691406 61.535156 34.222656 60.019531 32.671875 C 58.496094 31.121094 57.253906 29.835938 57.253906 29.804688 C 57.253906 29.757812 67.53125 19.199219 76.203125 10.328125 C 78.707031 7.773438 79.140625 7.300781 79.3125 6.945312 C 79.652344 6.25 79.738281 5.796875 79.730469 4.714844 C 79.71875 3.28125 79.507812 2.679688 78.757812 1.984375 C 77.867188 1.148438 76.585938 0.8125 75.3125 1.089844 Z M 76.710938 3.289062 C 77.039062 3.375 77.386719 3.691406 77.484375 3.984375 C 77.589844 4.308594 77.53125 5.46875 77.394531 5.796875 C 77.320312 5.960938 76.722656 6.617188 75.71875 7.636719 C 74.425781 8.957031 62.921875 20.75 57.191406 26.636719 L 55.648438 28.21875 L 54.207031 26.789062 C 53.421875 26 52.785156 25.324219 52.796875 25.285156 C 52.824219 25.214844 54.867188 23.203125 63.269531 14.96875 C 71.851562 6.558594 74.597656 3.898438 75.015625 3.617188 C 75.566406 3.238281 76.140625 3.125 76.710938 3.289062 Z M 42.765625 18.976562 C 42.972656 19.054688 43.355469 19.289062 43.617188 19.5 C 44.328125 20.070312 49.585938 25.21875 49.546875 25.3125 C 49.519531 25.382812 55.503906 31.410156 55.652344 31.457031 C 55.699219 31.472656 56.972656 32.75 58.496094 34.308594 C 61.40625 37.28125 61.5625 37.464844 61.714844 38.199219 C 61.882812 39.015625 61.71875 39.742188 61.195312 40.523438 C 60.996094 40.820312 60.339844 41.535156 59.496094 42.382812 C 58.734375 43.136719 58.109375 43.78125 58.109375 43.808594 C 58.109375 43.839844 58.300781 44.136719 58.527344 44.472656 C 58.757812 44.8125 58.996094 45.246094 59.0625 45.441406 C 59.289062 46.121094 59.1875 46.902344 58.773438 47.542969 C 58.574219 47.851562 38.121094 75.875 37.984375 76.019531 C 37.917969 76.09375 37.761719 75.976562 37.144531 75.363281 C 36.472656 74.707031 36.375 74.582031 36.285156 74.261719 C 35.96875 73.203125 36 72.460938 36.410156 71.496094 L 36.636719 70.945312 L 36.074219 70.378906 L 35.503906 69.808594 L 35.101562 69.988281 C 34.492188 70.261719 33.925781 70.445312 33.433594 70.523438 C 32.835938 70.628906 32.519531 70.539062 32.082031 70.132812 C 31.898438 69.960938 31.59375 69.710938 31.410156 69.578125 C 30.953125 69.25 30.550781 68.796875 30.402344 68.445312 C 30.085938 67.722656 30.070312 66.722656 30.355469 65.605469 L 30.503906 65.011719 L 29.972656 64.492188 L 29.449219 63.972656 L 28.824219 64.125 C 27.996094 64.328125 26.964844 64.445312 26.566406 64.386719 C 26.289062 64.339844 26.171875 64.269531 25.582031 63.734375 C 24.214844 62.507812 23.460938 61.621094 23.203125 60.964844 C 23.113281 60.714844 23.105469 60.589844 23.171875 60.03125 C 23.210938 59.679688 23.324219 58.976562 23.421875 58.476562 L 23.597656 57.5625 L 23.402344 57.40625 C 23.296875 57.320312 23.046875 57.125 22.851562 56.964844 L 22.488281 56.675781 L 22.09375 56.800781 C 20.792969 57.210938 19.488281 57.359375 19.023438 57.164062 C 18.484375 56.933594 16.828125 55.359375 16.34375 54.609375 C 16 54.085938 15.9375 53.839844 15.976562 53.289062 C 16.007812 52.75 16.121094 52.402344 16.519531 51.550781 C 16.722656 51.121094 16.789062 50.90625 16.742188 50.855469 C 16.710938 50.8125 16.429688 50.605469 16.121094 50.394531 L 15.5625 50.007812 L 14.820312 50.183594 C 13.242188 50.550781 12.457031 50.570312 12.023438 50.25 C 11.589844 49.929688 10.433594 48.757812 10.132812 48.339844 C 9.847656 47.953125 9.835938 47.90625 9.875 47.625 C 9.929688 47.230469 10.359375 46.421875 10.957031 45.605469 L 11.429688 44.949219 L 10.75 44.273438 L 10.070312 43.589844 L 9.304688 43.953125 C 7.871094 44.621094 7.058594 44.824219 6.625 44.621094 C 6.257812 44.453125 5.59375 43.917969 4.859375 43.21875 C 4.25 42.632812 4.183594 42.546875 4.269531 42.460938 C 4.433594 42.296875 33 21.878906 33.230469 21.757812 C 33.585938 21.574219 34.148438 21.40625 34.394531 21.40625 C 34.675781 21.40625 35.0625 21.648438 35.941406 22.371094 L 36.59375 22.910156 L 36.992188 22.542969 C 39.660156 20.113281 40.933594 18.996094 41.203125 18.871094 C 41.484375 18.734375 42.285156 18.792969 42.765625 18.976562 Z M 42.765625 18.976562 "/>
<path d="M 39.09375 23.46875 C 38.273438 23.828125 38.226562 25.042969 39.023438 25.449219 C 39.277344 25.585938 39.777344 25.585938 40.03125 25.457031 C 40.644531 25.132812 40.832031 24.339844 40.421875 23.800781 C 40.117188 23.40625 39.554688 23.269531 39.09375 23.46875 Z M 39.09375 23.46875 "/>
<path d="M 42.410156 26.800781 C 41.910156 27.085938 41.726562 27.839844 42.042969 28.304688 C 42.277344 28.652344 42.582031 28.824219 42.972656 28.824219 C 43.816406 28.824219 44.332031 27.925781 43.917969 27.183594 C 43.636719 26.683594 42.921875 26.5 42.410156 26.800781 Z M 42.410156 26.800781 "/>
<path d="M 30.992188 27.851562 C 30.597656 28.121094 30.5 28.320312 30.5 28.84375 C 30.5 29.226562 30.523438 29.355469 30.644531 29.519531 C 31.070312 30.117188 32.140625 30.113281 32.527344 29.515625 C 32.683594 29.277344 32.765625 28.785156 32.691406 28.523438 C 32.605469 28.234375 32.332031 27.910156 32.0625 27.800781 C 31.726562 27.65625 31.246094 27.683594 30.992188 27.851562 Z M 30.992188 27.851562 "/>
<path d="M 45.855469 30.03125 C 45.59375 30.152344 45.257812 30.558594 45.207031 30.832031 C 45.140625 31.214844 45.234375 31.511719 45.527344 31.8125 C 45.824219 32.121094 46.121094 32.21875 46.519531 32.148438 C 46.800781 32.09375 47.195312 31.757812 47.316406 31.472656 C 47.6875 30.585938 46.742188 29.652344 45.855469 30.03125 Z M 45.855469 30.03125 "/>
<path d="M 27.578125 30.25 C 26.953125 30.484375 26.664062 31.320312 27 31.925781 C 27.492188 32.804688 28.824219 32.613281 29.09375 31.628906 C 29.238281 31.101562 28.949219 30.503906 28.449219 30.296875 C 28.242188 30.203125 27.765625 30.175781 27.578125 30.25 Z M 27.578125 30.25 "/>
<path d="M 35.882812 32.441406 C 35.417969 32.574219 35.054688 33.238281 35.15625 33.769531 C 35.207031 34.0625 35.535156 34.457031 35.832031 34.578125 C 36.363281 34.800781 37.011719 34.578125 37.273438 34.078125 C 37.773438 33.132812 36.933594 32.132812 35.882812 32.441406 Z M 35.882812 32.441406 "/>
<path d="M 23.605469 33.054688 C 22.988281 33.324219 22.75 34.175781 23.136719 34.746094 C 23.460938 35.226562 24.203125 35.382812 24.703125 35.074219 C 25.207031 34.761719 25.371094 33.917969 25.015625 33.421875 C 24.734375 33.027344 24.0625 32.851562 23.605469 33.054688 Z M 23.605469 33.054688 "/>
<path d="M 49.105469 33.5 C 48.609375 33.78125 48.425781 34.535156 48.738281 35.003906 C 48.976562 35.351562 49.277344 35.523438 49.671875 35.523438 C 50.511719 35.523438 51.03125 34.621094 50.617188 33.878906 C 50.335938 33.382812 49.621094 33.199219 49.105469 33.5 Z M 49.105469 33.5 "/>
<path d="M 32.332031 35.1875 C 31.464844 35.582031 31.449219 36.78125 32.304688 37.210938 C 32.660156 37.394531 32.96875 37.398438 33.328125 37.234375 C 33.753906 37.046875 33.914062 36.761719 33.914062 36.210938 C 33.914062 35.832031 33.886719 35.710938 33.753906 35.527344 C 33.453125 35.101562 32.84375 34.957031 32.332031 35.1875 Z M 32.332031 35.1875 "/>
<path d="M 19.835938 36.09375 C 19.140625 36.433594 19.066406 37.570312 19.710938 38.03125 C 20.03125 38.253906 20.703125 38.28125 21.003906 38.070312 C 21.40625 37.800781 21.503906 37.601562 21.503906 37.097656 C 21.503906 36.597656 21.398438 36.394531 21.011719 36.125 C 20.742188 35.949219 20.171875 35.929688 19.835938 36.09375 Z M 19.835938 36.09375 "/>
<path d="M 52.527344 36.855469 C 51.601562 37.347656 51.851562 38.714844 52.902344 38.910156 C 53.222656 38.96875 53.675781 38.773438 53.933594 38.457031 C 54.105469 38.246094 54.128906 38.148438 54.136719 37.828125 C 54.136719 37.359375 53.941406 37.027344 53.539062 36.835938 C 53.191406 36.664062 52.875 36.671875 52.527344 36.855469 Z M 52.527344 36.855469 "/>
<path d="M 41.222656 38.015625 C 40.867188 38.207031 40.6875 38.496094 40.65625 38.941406 C 40.628906 39.265625 40.65625 39.371094 40.800781 39.621094 C 41.109375 40.144531 41.726562 40.320312 42.285156 40.03125 C 42.960938 39.699219 43.125 38.859375 42.632812 38.273438 C 42.296875 37.878906 41.695312 37.773438 41.222656 38.015625 Z M 41.222656 38.015625 "/>
<path d="M 28.667969 38.082031 C 28.398438 38.167969 28.121094 38.457031 27.996094 38.777344 C 27.714844 39.527344 28.265625 40.316406 29.074219 40.316406 C 29.914062 40.316406 30.445312 39.414062 30.066406 38.632812 C 29.992188 38.476562 29.835938 38.285156 29.710938 38.214844 C 29.453125 38.054688 28.949219 37.992188 28.667969 38.082031 Z M 28.667969 38.082031 "/>
<path d="M 16.230469 38.785156 C 15.613281 39.085938 15.398438 39.882812 15.785156 40.464844 C 15.957031 40.722656 16.429688 40.972656 16.742188 40.972656 C 17.097656 40.972656 17.539062 40.722656 17.714844 40.414062 C 17.917969 40.058594 17.890625 39.460938 17.667969 39.140625 C 17.375 38.726562 16.691406 38.554688 16.230469 38.785156 Z M 16.230469 38.785156 "/>
<path d="M 56.164062 40.113281 C 55.671875 40.238281 55.339844 40.667969 55.339844 41.203125 C 55.339844 41.890625 55.9375 42.375 56.652344 42.257812 C 57.503906 42.121094 57.820312 40.992188 57.171875 40.375 C 56.921875 40.136719 56.507812 40.03125 56.164062 40.113281 Z M 56.164062 40.113281 "/>
<path d="M 38.1875 40.933594 C 37.65625 41.128906 37.386719 41.574219 37.4375 42.167969 C 37.5 42.738281 37.867188 43.078125 38.46875 43.125 C 38.785156 43.144531 38.910156 43.125 39.113281 43.015625 C 39.722656 42.664062 39.886719 41.824219 39.453125 41.273438 C 39.179688 40.925781 38.628906 40.773438 38.1875 40.933594 Z M 38.1875 40.933594 "/>
<path d="M 24.945312 41.386719 C 24.824219 41.464844 24.65625 41.636719 24.570312 41.757812 C 24.4375 41.957031 24.417969 42.054688 24.4375 42.417969 C 24.476562 43.105469 24.871094 43.492188 25.542969 43.492188 C 26.210938 43.492188 26.605469 43.105469 26.644531 42.417969 C 26.664062 42.054688 26.644531 41.957031 26.511719 41.757812 C 26.265625 41.390625 25.976562 41.234375 25.542969 41.234375 C 25.257812 41.234375 25.113281 41.273438 24.945312 41.386719 Z M 24.945312 41.386719 "/>
<path d="M 12.605469 41.621094 C 11.84375 42.023438 11.839844 43.179688 12.585938 43.617188 C 12.855469 43.777344 13.425781 43.789062 13.703125 43.636719 C 14.503906 43.230469 14.496094 41.984375 13.703125 41.601562 C 13.394531 41.457031 12.890625 41.464844 12.605469 41.621094 Z M 12.605469 41.621094 "/>
<path d="M 47.050781 43.402344 C 46.945312 43.433594 46.761719 43.558594 46.636719 43.675781 C 45.910156 44.386719 46.433594 45.632812 47.457031 45.632812 C 47.847656 45.632812 48.261719 45.382812 48.4375 45.042969 C 48.9375 44.097656 48.089844 43.09375 47.050781 43.402344 Z M 47.050781 43.402344 "/>
<path d="M 21.472656 44.273438 C 20.933594 44.558594 20.734375 45.226562 21.019531 45.804688 C 21.175781 46.140625 21.472656 46.34375 21.878906 46.394531 C 22.257812 46.449219 22.582031 46.34375 22.828125 46.074219 C 23.742188 45.113281 22.640625 43.65625 21.472656 44.273438 Z M 21.472656 44.273438 "/>
<path d="M 34.550781 44.261719 C 34.136719 44.472656 33.917969 44.867188 33.960938 45.363281 C 33.992188 45.816406 34.167969 46.105469 34.535156 46.289062 C 35.015625 46.53125 35.601562 46.429688 35.9375 46.035156 C 36.429688 45.449219 36.265625 44.609375 35.585938 44.269531 C 35.226562 44.085938 34.910156 44.085938 34.550781 44.261719 Z M 34.550781 44.261719 "/>
<path d="M 43.933594 46.730469 C 43.203125 47.089844 43.171875 48.273438 43.886719 48.714844 C 44.203125 48.910156 44.8125 48.902344 45.109375 48.699219 C 45.496094 48.4375 45.601562 48.234375 45.601562 47.734375 C 45.601562 47.234375 45.496094 47.03125 45.109375 46.761719 C 44.839844 46.585938 44.269531 46.566406 43.933594 46.730469 Z M 43.933594 46.730469 "/>
<path d="M 18.234375 47.175781 C 17.5625 47.414062 17.289062 48.097656 17.589844 48.757812 C 17.761719 49.132812 18.0625 49.332031 18.515625 49.363281 C 18.796875 49.382812 18.949219 49.355469 19.152344 49.25 C 20.046875 48.796875 19.894531 47.414062 18.921875 47.144531 C 18.613281 47.058594 18.542969 47.066406 18.234375 47.175781 Z M 18.234375 47.175781 "/>
<path d="M 31.429688 47.695312 C 31.292969 47.746094 31.121094 47.839844 31.058594 47.898438 C 30.710938 48.214844 30.609375 48.988281 30.878906 49.375 C 31.140625 49.761719 31.347656 49.867188 31.84375 49.867188 C 32.351562 49.867188 32.546875 49.769531 32.816406 49.371094 C 33.027344 49.066406 33 48.398438 32.777344 48.074219 C 32.496094 47.683594 31.902344 47.519531 31.429688 47.695312 Z M 31.429688 47.695312 "/>
<path d="M 51.53125 47.800781 C 51.042969 47.945312 50.753906 48.351562 50.753906 48.878906 C 50.753906 49.703125 51.425781 50.191406 52.246094 49.972656 C 52.765625 49.828125 53.097656 49.246094 52.992188 48.660156 C 52.921875 48.285156 52.75 48.0625 52.398438 47.878906 C 52.101562 47.726562 51.839844 47.707031 51.53125 47.800781 Z M 51.53125 47.800781 "/>
<path d="M 40.761719 50.296875 C 40.40625 50.484375 40.230469 50.773438 40.195312 51.222656 C 40.175781 51.523438 40.195312 51.648438 40.320312 51.871094 C 40.964844 53.019531 42.726562 52.304688 42.417969 51.019531 C 42.246094 50.308594 41.425781 49.949219 40.761719 50.296875 Z M 40.761719 50.296875 "/>
<path d="M 28.136719 50.914062 C 27.273438 51.292969 27.214844 52.535156 28.035156 52.96875 C 28.652344 53.296875 29.382812 53.046875 29.652344 52.417969 C 30.050781 51.484375 29.0625 50.5 28.136719 50.914062 Z M 28.136719 50.914062 "/>
<path d="M 48.679688 51.304688 C 47.871094 51.660156 47.808594 52.851562 48.5625 53.324219 C 48.851562 53.5 49.382812 53.511719 49.683594 53.363281 C 49.929688 53.230469 50.214844 52.902344 50.269531 52.683594 C 50.339844 52.410156 50.257812 51.871094 50.117188 51.6875 C 49.882812 51.371094 49.585938 51.214844 49.21875 51.214844 C 49.035156 51.222656 48.792969 51.261719 48.679688 51.304688 Z M 48.679688 51.304688 "/>
<path d="M 37.976562 53.980469 C 37.511719 54.109375 37.171875 54.761719 37.289062 55.292969 C 37.417969 55.871094 37.925781 56.246094 38.503906 56.179688 C 39.179688 56.105469 39.566406 55.640625 39.515625 54.964844 C 39.453125 54.175781 38.777344 53.742188 37.976562 53.980469 Z M 37.976562 53.980469 "/>
<path d="M 24.839844 54.269531 C 24.53125 54.457031 24.292969 54.871094 24.292969 55.226562 C 24.292969 55.542969 24.542969 56.007812 24.800781 56.179688 C 25.234375 56.46875 25.796875 56.433594 26.203125 56.09375 C 26.75 55.632812 26.703125 54.707031 26.121094 54.292969 C 25.792969 54.058594 25.199219 54.042969 24.839844 54.269531 Z M 24.839844 54.269531 "/>
<path d="M 45.890625 55.023438 C 45.226562 55.21875 44.925781 55.960938 45.234375 56.636719 C 45.390625 56.984375 45.699219 57.203125 46.09375 57.242188 C 46.703125 57.300781 47.195312 56.964844 47.347656 56.402344 C 47.570312 55.535156 46.757812 54.761719 45.890625 55.023438 Z M 45.890625 55.023438 "/>
<path d="M 34.964844 57.480469 C 34.050781 57.886719 34.089844 59.230469 35.03125 59.59375 C 36.039062 59.972656 36.953125 58.898438 36.421875 57.945312 C 36.160156 57.480469 35.464844 57.253906 34.964844 57.480469 Z M 34.964844 57.480469 "/>
<path d="M 43.222656 58.96875 C 42.921875 59.0625 42.582031 59.421875 42.5 59.738281 C 42.375 60.238281 42.546875 60.714844 42.96875 61.023438 C 43.230469 61.222656 43.972656 61.222656 44.234375 61.023438 C 44.714844 60.667969 44.859375 60.03125 44.582031 59.496094 C 44.359375 59.046875 43.742188 58.8125 43.222656 58.96875 Z M 43.222656 58.96875 "/>
<path d="M 32.171875 60.976562 C 31.925781 61.078125 31.6875 61.304688 31.574219 61.550781 C 31.175781 62.4375 31.910156 63.382812 32.835938 63.171875 C 33.210938 63.085938 33.421875 62.921875 33.605469 62.566406 C 33.722656 62.34375 33.75 62.210938 33.722656 61.96875 C 33.652344 61.304688 33.308594 60.976562 32.664062 60.953125 C 32.449219 60.945312 32.226562 60.953125 32.171875 60.976562 Z M 32.171875 60.976562 "/>
<path d="M 40.492188 62.671875 C 39.578125 62.992188 39.46875 64.253906 40.300781 64.726562 C 40.625 64.90625 41.039062 64.910156 41.40625 64.746094 C 42.074219 64.4375 42.234375 63.539062 41.714844 62.96875 C 41.378906 62.59375 40.976562 62.496094 40.492188 62.671875 Z M 40.492188 62.671875 "/>
<path d="M 37.78125 66.433594 C 37.222656 66.699219 37.007812 67.386719 37.292969 67.984375 C 37.726562 68.890625 39.132812 68.746094 39.394531 67.773438 C 39.519531 67.292969 39.335938 66.800781 38.921875 66.492188 C 38.667969 66.304688 38.121094 66.277344 37.78125 66.433594 Z M 37.78125 66.433594 "/>
</g>
</svg>
