<svg xmlns="http://www.w3.org/2000/svg" width="1074.000000pt" height="1028.000000pt" viewBox="0 0 1074.000000 1028.000000" preserveAspectRatio="xMidYMid meet" fill="#494E61">
<g transform="translate(0.000000,1028.000000) scale(0.100000,-0.100000)" stroke="none">
<path d="M5135 9359 c-185 -13 -430 -50 -551 -85 -28 -8 -57 -14 -66 -14 -17
0 -294 -90 -353 -115 -61 -25 -276 -133 -310 -155 -16 -11 -37 -23 -45 -27
-73 -34 -261 -182 -399 -313 -99 -94 -255 -296 -325 -420 -11 -19 -30 -53 -42
-75 -24 -43 -57 -110 -80 -162 -8 -18 -21 -48 -28 -65 -16 -35 -63 -178 -89
-268 -45 -156 -73 -328 -88 -547 -10 -148 -10 -185 0 -197 12 -14 95 -16 758
-16 586 0 744 3 747 13 2 6 11 73 20 147 24 191 45 268 113 405 48 95 128 200
204 267 64 56 208 148 232 148 7 0 21 6 32 13 24 15 102 40 205 64 115 26 427
24 530 -5 154 -43 245 -85 350 -162 156 -116 265 -283 314 -482 23 -96 21
-243 -5 -337 -12 -42 -25 -80 -30 -85 -5 -6 -9 -16 -9 -23 0 -25 -94 -168
-166 -253 -109 -129 -240 -249 -570 -522 -71 -58 -138 -115 -149 -125 -11 -10
-49 -42 -85 -72 -95 -80 -357 -344 -426 -430 -186 -232 -320 -471 -387 -696
-73 -239 -79 -294 -85 -692 -4 -274 -2 -356 8 -368 11 -13 120 -15 896 -15
863 0 884 0 894 19 6 12 10 120 10 280 0 197 4 279 16 338 56 279 145 463 324
667 65 74 238 212 352 281 200 120 496 373 649 555 30 35 62 73 72 85 39 43
170 249 212 333 175 348 245 723 210 1127 -7 88 -18 185 -25 215 -17 79 -40
170 -51 205 -6 17 -15 44 -19 60 -11 38 -33 97 -58 156 -222 514 -658 919
-1232 1143 -25 10 -60 24 -78 32 -18 8 -39 14 -47 14 -8 0 -29 6 -47 14 -58
24 -216 66 -343 90 -304 58 -637 77 -960 55z m604 -264 c216 -24 322 -43 504
-92 97 -26 271 -84 282 -94 5 -5 15 -9 22 -9 14 0 184 -81 268 -128 232 -129
502 -374 638 -581 95 -144 178 -321 220 -471 33 -114 40 -148 58 -275 44 -307
5 -654 -106 -942 -82 -213 -223 -421 -410 -609 -148 -148 -358 -316 -513 -409
-268 -161 -514 -425 -641 -689 -105 -216 -155 -428 -170 -720 l-6 -121 -640 0
-640 0 1 170 c1 279 26 428 110 665 18 52 96 211 124 255 11 17 23 37 27 45
22 50 206 273 308 376 110 110 303 286 395 359 66 53 135 110 145 121 6 5 33
28 60 49 28 22 52 42 55 45 3 3 54 48 115 100 243 210 388 379 477 555 49 95
63 130 82 195 65 234 40 476 -74 705 -96 196 -238 350 -436 472 -219 137 -578
202 -868 159 -356 -54 -607 -182 -804 -411 -82 -95 -176 -275 -215 -415 -30
-106 -47 -175 -49 -205 l-3 -30 -510 0 -510 0 3 70 c5 132 59 366 124 540 68
184 116 279 213 425 210 314 539 572 910 713 22 8 58 22 80 30 171 66 433 123
680 150 180 20 525 21 694 2z"/>
<path d="M5234 8839 c-18 -5 -46 -22 -63 -38 -27 -25 -31 -36 -31 -78 0 -43 4
-53 38 -86 45 -44 80 -48 147 -15 48 24 57 39 59 109 0 32 -6 45 -34 73 -40
39 -71 49 -116 35z"/>
<path d="M5753 8789 c-61 -19 -61 -19 -78 -73 -15 -48 -15 -56 -2 -82 20 -38
52 -71 76 -79 11 -3 45 1 75 10 51 15 57 20 76 62 11 25 20 52 20 59 0 21 -49
87 -78 106 -25 15 -31 15 -89 -3z"/>
<path d="M6250 8653 c-26 -9 -50 -36 -67 -71 -14 -29 -14 -39 -2 -74 24 -74
42 -88 113 -88 68 0 83 9 121 77 18 31 18 33 0 75 -31 70 -52 88 -104 87 -25
0 -53 -3 -61 -6z"/>
<path d="M6672 8367 c-28 -29 -32 -39 -32 -87 1 -66 20 -93 76 -109 63 -18 88
-13 127 22 33 29 37 38 37 81 0 73 -28 112 -86 120 -77 10 -89 7 -122 -27z"/>
<path d="M7065 8010 c-47 -22 -64 -55 -65 -122 0 -41 4 -49 32 -70 66 -47 76
-49 127 -32 58 19 81 53 81 121 0 39 -5 54 -23 71 -13 12 -28 22 -34 22 -6 0
-16 7 -23 15 -16 19 -45 18 -95 -5z"/>
<path d="M7216 7486 c-39 -47 -47 -94 -21 -116 8 -7 15 -18 15 -24 0 -24 45
-54 90 -60 43 -6 47 -4 83 32 64 65 65 119 4 185 -22 23 -34 27 -81 27 -52 0
-56 -2 -90 -44z"/>
<path d="M7197 6986 c-43 -24 -51 -42 -48 -111 2 -57 25 -88 78 -105 46 -16
87 -4 128 35 38 35 41 52 24 121 -10 37 -18 48 -50 64 -48 25 -84 24 -132 -4z"/>
<path d="M6980 6511 c-32 -17 -36 -24 -46 -82 -12 -74 -7 -88 46 -123 29 -20
43 -23 80 -17 69 9 89 29 102 100 l12 61 -39 40 c-33 34 -46 40 -80 40 -22 0
-56 -8 -75 -19z"/>
<path d="M6638 6120 c-27 -16 -60 -78 -60 -113 0 -41 36 -103 65 -111 29 -7
86 -7 115 0 27 8 60 68 64 116 2 36 -37 100 -68 112 -24 9 -97 6 -116 -4z"/>
<path d="M6225 5754 c-13 -14 -30 -44 -38 -67 -13 -40 -13 -44 14 -92 l27 -50
67 -3 c77 -3 87 2 115 66 24 53 25 85 5 102 -8 7 -15 18 -15 26 0 24 -43 44
-98 44 -44 0 -57 -4 -77 -26z"/>
<path d="M5838 5391 c-27 -24 -32 -36 -35 -87 -4 -55 -2 -61 27 -91 27 -29 37
-33 85 -33 29 0 61 3 70 6 24 10 55 78 55 122 0 31 -7 45 -38 75 -33 32 -44
37 -85 37 -37 0 -53 -6 -79 -29z"/>
<path d="M5610 4985 c-14 -8 -33 -14 -42 -15 -9 0 -29 -12 -43 -27 -21 -23
-25 -38 -25 -84 0 -65 13 -82 98 -125 16 -8 88 22 120 50 18 16 22 30 22 81 0
62 0 62 -42 91 -24 15 -48 31 -53 35 -6 4 -21 1 -35 -6z"/>
<path d="M5448 4452 c-70 -52 -86 -115 -46 -179 54 -88 185 -76 226 20 17 40
15 66 -11 116 -21 41 -28 46 -77 57 -30 7 -55 13 -55 13 0 0 -17 -12 -37 -27z"/>
<path d="M5025 3150 c-205 -51 -359 -136 -493 -272 -117 -119 -191 -231 -245
-373 -98 -257 -85 -556 34 -803 70 -144 168 -267 284 -356 190 -146 326 -202
550 -226 92 -10 128 -10 220 4 160 23 203 35 330 97 144 70 270 173 363 298
62 83 68 93 112 179 93 184 125 441 81 648 -23 107 -33 137 -78 234 -99 213
-278 393 -496 498 -37 17 -72 32 -77 32 -5 0 -24 6 -42 14 -112 48 -400 62
-543 26z m345 -245 c85 -13 161 -34 196 -53 11 -6 26 -13 34 -16 44 -17 156
-103 217 -168 83 -88 125 -161 176 -303 18 -52 21 -82 22 -220 0 -132 -3 -170
-19 -215 -72 -208 -184 -351 -351 -450 -47 -27 -90 -50 -95 -50 -5 0 -24 -6
-42 -14 -103 -44 -294 -59 -401 -31 -32 8 -65 15 -74 15 -8 0 -63 23 -122 52
-94 46 -117 63 -202 147 -53 53 -103 110 -112 126 -89 170 -117 268 -117 420
0 207 71 386 209 528 128 132 257 201 436 232 95 17 145 17 245 0z"/>
<path d="M5683 2236 c-34 -31 -37 -38 -37 -88 0 -66 23 -103 76 -119 51 -16
106 -3 140 33 23 25 28 39 28 82 0 47 -4 56 -37 89 -32 32 -42 37 -85 37 -41
0 -54 -5 -85 -34z"/>
<path d="M5542 1881 c-32 -24 -41 -38 -47 -70 -9 -57 2 -96 35 -125 58 -48
136 -42 185 15 19 23 25 42 25 78 0 53 -16 81 -64 110 -46 29 -85 26 -134 -8z"/>
<path d="M5189 1737 c-19 -12 -42 -40 -53 -61 -16 -32 -17 -44 -7 -74 36 -115
169 -138 229 -39 41 66 20 142 -50 178 -49 25 -78 24 -119 -4z"/>
</g>
</svg>
