<svg xmlns="http://www.w3.org/2000/svg" width="83px" height="80px" viewBox="0 0 83 80" fill="#494E61">
<g id="surface1">
<path d="M 39.667969 7.167969 C 38.238281 7.269531 36.347656 7.554688 35.414062 7.828125 C 35.195312 7.890625 34.972656 7.9375 34.902344 7.9375 C 34.769531 7.9375 32.632812 8.636719 32.175781 8.832031 C 31.703125 9.027344 30.042969 9.867188 29.78125 10.039062 C 29.65625 10.125 29.496094 10.21875 29.433594 10.25 C 28.871094 10.511719 27.417969 11.664062 26.351562 12.683594 C 25.585938 13.417969 24.382812 14.988281 23.839844 15.953125 C 23.753906 16.101562 23.609375 16.367188 23.515625 16.535156 C 23.332031 16.871094 23.074219 17.394531 22.898438 17.796875 C 22.835938 17.9375 22.734375 18.171875 22.679688 18.304688 C 22.558594 18.574219 22.195312 19.6875 21.992188 20.390625 C 21.644531 21.601562 21.429688 22.941406 21.3125 24.644531 C 21.238281 25.796875 21.238281 26.085938 21.3125 26.179688 C 21.40625 26.289062 22.046875 26.304688 27.167969 26.304688 C 31.695312 26.304688 32.917969 26.28125 32.941406 26.203125 C 32.957031 26.15625 33.027344 25.632812 33.09375 25.058594 C 33.28125 23.570312 33.441406 22.972656 33.96875 21.90625 C 34.339844 21.167969 34.957031 20.351562 35.542969 19.828125 C 36.039062 19.394531 37.152344 18.675781 37.335938 18.675781 C 37.390625 18.675781 37.5 18.628906 37.582031 18.574219 C 37.769531 18.460938 38.371094 18.265625 39.167969 18.078125 C 40.054688 17.875 42.464844 17.890625 43.261719 18.117188 C 44.449219 18.453125 45.152344 18.777344 45.964844 19.378906 C 47.171875 20.28125 48.011719 21.578125 48.390625 23.128906 C 48.570312 23.875 48.554688 25.019531 48.351562 25.75 C 48.257812 26.078125 48.160156 26.375 48.121094 26.414062 C 48.082031 26.460938 48.050781 26.535156 48.050781 26.589844 C 48.050781 26.785156 47.324219 27.898438 46.769531 28.558594 C 45.925781 29.5625 44.914062 30.5 42.363281 32.621094 C 41.816406 33.074219 41.300781 33.515625 41.214844 33.59375 C 41.128906 33.671875 40.835938 33.921875 40.558594 34.15625 C 39.824219 34.777344 37.800781 36.832031 37.265625 37.5 C 35.828125 39.308594 34.792969 41.167969 34.277344 42.917969 C 33.714844 44.777344 33.667969 45.207031 33.621094 48.304688 C 33.589844 50.4375 33.605469 51.074219 33.683594 51.167969 C 33.765625 51.269531 34.609375 51.285156 40.605469 51.285156 C 47.269531 51.285156 47.433594 51.285156 47.511719 51.136719 C 47.554688 51.042969 47.585938 50.203125 47.585938 48.957031 C 47.585938 47.425781 47.617188 46.785156 47.710938 46.328125 C 48.144531 44.15625 48.832031 42.722656 50.214844 41.136719 C 50.714844 40.558594 52.050781 39.488281 52.933594 38.949219 C 54.476562 38.015625 56.765625 36.046875 57.945312 34.628906 C 58.179688 34.359375 58.425781 34.0625 58.503906 33.96875 C 58.804688 33.632812 59.816406 32.03125 60.140625 31.378906 C 61.492188 28.667969 62.035156 25.75 61.761719 22.605469 C 61.710938 21.921875 61.625 21.167969 61.570312 20.933594 C 61.4375 20.320312 61.261719 19.609375 61.175781 19.339844 C 61.128906 19.207031 61.058594 18.996094 61.03125 18.871094 C 60.945312 18.574219 60.773438 18.117188 60.582031 17.65625 C 58.867188 13.65625 55.5 10.503906 51.0625 8.761719 C 50.871094 8.683594 50.601562 8.574219 50.460938 8.511719 C 50.320312 8.453125 50.160156 8.40625 50.097656 8.40625 C 50.035156 8.40625 49.875 8.359375 49.734375 8.296875 C 49.285156 8.109375 48.066406 7.78125 47.085938 7.59375 C 44.738281 7.144531 42.164062 6.996094 39.667969 7.167969 Z M 44.335938 9.222656 C 46.003906 9.410156 46.824219 9.554688 48.230469 9.9375 C 48.976562 10.140625 50.320312 10.589844 50.40625 10.667969 C 50.445312 10.707031 50.523438 10.738281 50.578125 10.738281 C 50.683594 10.738281 52 11.371094 52.648438 11.734375 C 54.441406 12.738281 56.527344 14.644531 57.578125 16.257812 C 58.308594 17.378906 58.953125 18.753906 59.277344 19.921875 C 59.53125 20.808594 59.585938 21.074219 59.722656 22.0625 C 60.0625 24.453125 59.761719 27.152344 58.90625 29.394531 C 58.273438 31.050781 57.183594 32.667969 55.738281 34.132812 C 54.59375 35.285156 52.972656 36.589844 51.773438 37.316406 C 49.703125 38.566406 47.804688 40.621094 46.824219 42.675781 C 46.011719 44.359375 45.625 46.007812 45.507812 48.28125 L 45.464844 49.222656 L 35.574219 49.222656 L 35.582031 47.898438 C 35.589844 45.726562 35.785156 44.566406 36.433594 42.722656 C 36.570312 42.320312 37.175781 41.082031 37.390625 40.738281 C 37.476562 40.605469 37.566406 40.453125 37.597656 40.390625 C 37.769531 40 39.191406 38.265625 39.976562 37.464844 C 40.828125 36.605469 42.320312 35.238281 43.03125 34.667969 C 43.539062 34.257812 44.074219 33.8125 44.148438 33.726562 C 44.195312 33.6875 44.40625 33.507812 44.613281 33.347656 C 44.828125 33.175781 45.015625 33.019531 45.039062 32.996094 C 45.0625 32.972656 45.457031 32.621094 45.925781 32.21875 C 47.804688 30.582031 48.925781 29.269531 49.613281 27.898438 C 49.988281 27.160156 50.097656 26.886719 50.246094 26.382812 C 50.746094 24.558594 50.554688 22.675781 49.671875 20.894531 C 48.933594 19.371094 47.835938 18.171875 46.304688 17.222656 C 44.613281 16.15625 41.839844 15.648438 39.597656 15.984375 C 36.847656 16.40625 34.910156 17.402344 33.386719 19.183594 C 32.753906 19.921875 32.027344 21.324219 31.726562 22.414062 C 31.496094 23.238281 31.363281 23.773438 31.347656 24.007812 L 31.324219 24.242188 L 23.445312 24.242188 L 23.46875 23.695312 C 23.507812 22.667969 23.925781 20.847656 24.425781 19.496094 C 24.953125 18.0625 25.324219 17.324219 26.074219 16.1875 C 27.695312 13.742188 30.238281 11.734375 33.101562 10.636719 C 33.273438 10.574219 33.550781 10.46875 33.71875 10.40625 C 35.042969 9.890625 37.066406 9.449219 38.972656 9.238281 C 40.363281 9.082031 43.03125 9.074219 44.335938 9.222656 Z M 44.335938 9.222656 "/>
<path d="M 40.433594 11.214844 C 40.292969 11.253906 40.078125 11.386719 39.945312 11.507812 C 39.738281 11.703125 39.707031 11.789062 39.707031 12.117188 C 39.707031 12.453125 39.738281 12.527344 40 12.785156 C 40.347656 13.128906 40.621094 13.160156 41.136719 12.902344 C 41.507812 12.714844 41.578125 12.597656 41.59375 12.054688 C 41.59375 11.804688 41.546875 11.703125 41.328125 11.488281 C 41.019531 11.183594 40.78125 11.105469 40.433594 11.214844 Z M 40.433594 11.214844 "/>
<path d="M 44.441406 11.601562 C 43.972656 11.75 43.972656 11.75 43.839844 12.171875 C 43.726562 12.542969 43.726562 12.605469 43.824219 12.808594 C 43.980469 13.105469 44.226562 13.363281 44.414062 13.425781 C 44.496094 13.449219 44.761719 13.417969 44.992188 13.347656 C 45.386719 13.230469 45.433594 13.191406 45.578125 12.863281 C 45.664062 12.667969 45.734375 12.460938 45.734375 12.40625 C 45.734375 12.242188 45.355469 11.726562 45.132812 11.578125 C 44.9375 11.464844 44.890625 11.464844 44.441406 11.601562 Z M 44.441406 11.601562 "/>
<path d="M 48.28125 12.660156 C 48.082031 12.730469 47.898438 12.941406 47.765625 13.214844 C 47.65625 13.441406 47.65625 13.515625 47.75 13.789062 C 47.933594 14.367188 48.074219 14.476562 48.621094 14.476562 C 49.148438 14.476562 49.265625 14.40625 49.558594 13.875 C 49.695312 13.632812 49.695312 13.617188 49.558594 13.292969 C 49.316406 12.746094 49.15625 12.605469 48.753906 12.613281 C 48.5625 12.613281 48.34375 12.636719 48.28125 12.660156 Z M 48.28125 12.660156 "/>
<path d="M 51.542969 14.886719 C 51.328125 15.113281 51.296875 15.191406 51.296875 15.5625 C 51.304688 16.078125 51.449219 16.289062 51.882812 16.414062 C 52.371094 16.550781 52.5625 16.511719 52.863281 16.242188 C 53.117188 16.015625 53.148438 15.945312 53.148438 15.609375 C 53.148438 15.042969 52.933594 14.738281 52.484375 14.675781 C 51.890625 14.597656 51.796875 14.621094 51.542969 14.886719 Z M 51.542969 14.886719 "/>
<path d="M 54.578125 17.664062 C 54.214844 17.835938 54.085938 18.09375 54.078125 18.613281 C 54.078125 18.933594 54.109375 18.996094 54.324219 19.160156 C 54.832031 19.523438 54.910156 19.539062 55.304688 19.410156 C 55.753906 19.261719 55.929688 18.996094 55.929688 18.46875 C 55.929688 18.164062 55.890625 18.046875 55.753906 17.914062 C 55.652344 17.820312 55.535156 17.742188 55.492188 17.742188 C 55.445312 17.742188 55.367188 17.6875 55.3125 17.625 C 55.1875 17.480469 54.964844 17.488281 54.578125 17.664062 Z M 54.578125 17.664062 "/>
<path d="M 55.746094 21.742188 C 55.445312 22.109375 55.382812 22.476562 55.582031 22.644531 C 55.644531 22.699219 55.699219 22.785156 55.699219 22.832031 C 55.699219 23.019531 56.046875 23.253906 56.394531 23.300781 C 56.726562 23.347656 56.757812 23.332031 57.035156 23.050781 C 57.53125 22.542969 57.539062 22.125 57.066406 21.609375 C 56.894531 21.433594 56.804688 21.402344 56.441406 21.402344 C 56.039062 21.402344 56.007812 21.417969 55.746094 21.742188 Z M 55.746094 21.742188 "/>
<path d="M 55.597656 25.632812 C 55.265625 25.820312 55.203125 25.960938 55.226562 26.5 C 55.242188 26.941406 55.421875 27.183594 55.832031 27.316406 C 56.1875 27.441406 56.503906 27.347656 56.820312 27.042969 C 57.113281 26.769531 57.136719 26.636719 57.003906 26.101562 C 56.925781 25.8125 56.867188 25.726562 56.617188 25.601562 C 56.246094 25.410156 55.96875 25.417969 55.597656 25.632812 Z M 55.597656 25.632812 "/>
<path d="M 53.921875 29.332031 C 53.675781 29.464844 53.644531 29.515625 53.566406 29.96875 C 53.472656 30.542969 53.511719 30.652344 53.921875 30.925781 C 54.144531 31.082031 54.253906 31.105469 54.539062 31.058594 C 55.074219 30.988281 55.226562 30.832031 55.328125 30.28125 L 55.421875 29.804688 L 55.121094 29.496094 C 54.863281 29.230469 54.765625 29.183594 54.5 29.183594 C 54.332031 29.183594 54.070312 29.246094 53.921875 29.332031 Z M 53.921875 29.332031 "/>
<path d="M 51.28125 32.375 C 51.070312 32.5 50.816406 32.980469 50.816406 33.253906 C 50.816406 33.570312 51.09375 34.054688 51.320312 34.117188 C 51.542969 34.171875 51.984375 34.171875 52.207031 34.117188 C 52.414062 34.054688 52.671875 33.585938 52.703125 33.214844 C 52.71875 32.933594 52.414062 32.4375 52.175781 32.34375 C 51.992188 32.273438 51.425781 32.296875 51.28125 32.375 Z M 51.28125 32.375 "/>
<path d="M 48.089844 35.222656 C 47.988281 35.332031 47.859375 35.5625 47.796875 35.742188 C 47.695312 36.054688 47.695312 36.085938 47.902344 36.460938 L 48.113281 36.847656 L 48.628906 36.871094 C 49.226562 36.894531 49.300781 36.855469 49.519531 36.359375 C 49.703125 35.945312 49.710938 35.695312 49.558594 35.5625 C 49.496094 35.507812 49.441406 35.425781 49.441406 35.363281 C 49.441406 35.175781 49.109375 35.019531 48.683594 35.019531 C 48.34375 35.019531 48.242188 35.050781 48.089844 35.222656 Z M 48.089844 35.222656 "/>
<path d="M 45.101562 38.046875 C 44.890625 38.234375 44.851562 38.328125 44.828125 38.722656 C 44.796875 39.152344 44.8125 39.199219 45.039062 39.433594 C 45.246094 39.65625 45.324219 39.6875 45.695312 39.6875 C 45.917969 39.6875 46.167969 39.664062 46.234375 39.640625 C 46.421875 39.5625 46.660156 39.035156 46.660156 38.691406 C 46.660156 38.453125 46.605469 38.34375 46.367188 38.109375 C 46.113281 37.859375 46.027344 37.820312 45.710938 37.820312 C 45.425781 37.820312 45.300781 37.867188 45.101562 38.046875 Z M 45.101562 38.046875 "/>
<path d="M 43.339844 41.207031 C 43.230469 41.269531 43.082031 41.316406 43.015625 41.324219 C 42.945312 41.324219 42.789062 41.417969 42.683594 41.53125 C 42.519531 41.710938 42.488281 41.828125 42.488281 42.1875 C 42.488281 42.691406 42.589844 42.824219 43.246094 43.160156 C 43.371094 43.222656 43.925781 42.988281 44.171875 42.769531 C 44.3125 42.644531 44.34375 42.535156 44.34375 42.140625 C 44.34375 41.65625 44.34375 41.65625 44.019531 41.433594 C 43.832031 41.316406 43.648438 41.191406 43.609375 41.160156 C 43.5625 41.128906 43.445312 41.152344 43.339844 41.207031 Z M 43.339844 41.207031 "/>
<path d="M 42.085938 45.355469 C 41.546875 45.757812 41.421875 46.25 41.730469 46.746094 C 42.148438 47.433594 43.160156 47.339844 43.476562 46.589844 C 43.609375 46.28125 43.59375 46.078125 43.394531 45.6875 C 43.230469 45.371094 43.175781 45.332031 42.796875 45.246094 C 42.566406 45.191406 42.371094 45.144531 42.371094 45.144531 C 42.371094 45.144531 42.242188 45.238281 42.085938 45.355469 Z M 42.085938 45.355469 "/>
<path d="M 38.820312 55.488281 C 37.234375 55.882812 36.046875 56.542969 35.011719 57.601562 C 34.105469 58.527344 33.535156 59.402344 33.117188 60.503906 C 32.359375 62.503906 32.460938 64.832031 33.378906 66.753906 C 33.921875 67.875 34.679688 68.832031 35.574219 69.523438 C 37.042969 70.660156 38.09375 71.097656 39.824219 71.285156 C 40.535156 71.363281 40.8125 71.363281 41.523438 71.253906 C 42.757812 71.074219 43.089844 70.980469 44.074219 70.5 C 45.183594 69.953125 46.160156 69.152344 46.875 68.179688 C 47.355469 67.53125 47.402344 67.457031 47.742188 66.785156 C 48.460938 65.355469 48.707031 63.355469 48.367188 61.742188 C 48.191406 60.910156 48.113281 60.675781 47.765625 59.921875 C 47 58.265625 45.617188 56.863281 43.933594 56.046875 C 43.648438 55.914062 43.378906 55.796875 43.339844 55.796875 C 43.300781 55.796875 43.152344 55.75 43.015625 55.6875 C 42.148438 55.316406 39.925781 55.207031 38.820312 55.488281 Z M 41.484375 57.394531 C 42.140625 57.496094 42.726562 57.65625 43 57.804688 C 43.082031 57.851562 43.199219 57.90625 43.261719 57.929688 C 43.601562 58.0625 44.464844 58.730469 44.9375 59.238281 C 45.578125 59.921875 45.902344 60.492188 46.296875 61.59375 C 46.4375 62 46.460938 62.234375 46.46875 63.308594 C 46.46875 64.335938 46.445312 64.628906 46.320312 64.980469 C 45.765625 66.597656 44.898438 67.710938 43.609375 68.484375 C 43.246094 68.691406 42.914062 68.871094 42.875 68.871094 C 42.835938 68.871094 42.691406 68.917969 42.550781 68.980469 C 41.753906 69.324219 40.28125 69.441406 39.453125 69.222656 C 39.207031 69.160156 38.949219 69.105469 38.882812 69.105469 C 38.820312 69.105469 38.394531 68.925781 37.9375 68.699219 C 37.210938 68.34375 37.035156 68.210938 36.378906 67.554688 C 35.96875 67.144531 35.582031 66.699219 35.511719 66.574219 C 34.824219 65.253906 34.609375 64.492188 34.609375 63.308594 C 34.609375 61.695312 35.15625 60.304688 36.222656 59.199219 C 37.210938 58.171875 38.210938 57.632812 39.59375 57.394531 C 40.324219 57.261719 40.710938 57.261719 41.484375 57.394531 Z M 41.484375 57.394531 "/>
<path d="M 43.902344 62.597656 C 43.640625 62.839844 43.617188 62.894531 43.617188 63.285156 C 43.617188 63.796875 43.792969 64.085938 44.203125 64.210938 C 44.597656 64.335938 45.023438 64.234375 45.285156 63.953125 C 45.464844 63.757812 45.5 63.648438 45.5 63.316406 C 45.5 62.949219 45.472656 62.878906 45.214844 62.621094 C 44.96875 62.375 44.890625 62.335938 44.558594 62.335938 C 44.242188 62.335938 44.140625 62.375 43.902344 62.597656 Z M 43.902344 62.597656 "/>
<path d="M 42.8125 65.363281 C 42.566406 65.546875 42.496094 65.65625 42.449219 65.90625 C 42.378906 66.351562 42.464844 66.652344 42.71875 66.878906 C 43.167969 67.253906 43.769531 67.207031 44.148438 66.761719 C 44.296875 66.582031 44.34375 66.4375 44.34375 66.15625 C 44.34375 65.742188 44.21875 65.523438 43.847656 65.300781 C 43.492188 65.074219 43.191406 65.097656 42.8125 65.363281 Z M 42.8125 65.363281 "/>
<path d="M 40.085938 66.484375 C 39.941406 66.574219 39.761719 66.792969 39.675781 66.957031 C 39.554688 67.207031 39.546875 67.300781 39.621094 67.53125 C 39.902344 68.429688 40.929688 68.605469 41.390625 67.835938 C 41.707031 67.324219 41.546875 66.730469 41.003906 66.453125 C 40.628906 66.257812 40.402344 66.265625 40.085938 66.484375 Z M 40.085938 66.484375 "/>
</g>
</svg>
