<svg fill="#494E61" xmlns="http://www.w3.org/2000/svg"  viewBox="0 0 80 80" width="80px" height="80px"><path d="M 52.808594 8.007813 C 46.921875 7.953125 40.929688 10.234375 36.640625 14.523438 C 32.660156 18.5 31.414063 23.089844 32.253906 27.554688 C 32.480469 28.75 32.855469 29.933594 33.34375 31.097656 L 11.222656 53.222656 C 6.933594 57.511719 6.933594 64.488281 11.222656 68.777344 C 15.511719 73.066406 22.488281 73.066406 26.777344 68.777344 L 48.902344 46.65625 C 50.066406 47.144531 51.25 47.519531 52.445313 47.746094 C 56.910156 48.585938 61.5 47.339844 65.476563 43.359375 C 71.574219 37.261719 73.613281 27.714844 70.652344 19.925781 L 70.101563 18.484375 L 56.769531 31.8125 L 50.761719 29.238281 L 48.1875 23.230469 L 61.515625 9.898438 L 60.074219 9.347656 C 58.125 8.605469 56.070313 8.179688 53.984375 8.046875 C 53.59375 8.023438 53.199219 8.011719 52.808594 8.007813 Z M 52.792969 10.023438 C 53.148438 10.027344 53.507813 10.039063 53.859375 10.058594 C 55.1875 10.136719 56.449219 10.523438 57.714844 10.871094 L 45.8125 22.769531 L 49.238281 30.761719 L 57.230469 34.1875 L 57.707031 33.707031 L 69.128906 22.285156 C 70.964844 28.972656 69.164063 36.847656 64.0625 41.949219 C 60.46875 45.542969 56.703125 46.511719 52.8125 45.78125 C 48.925781 45.046875 44.890625 42.496094 41.199219 38.800781 C 37.503906 35.109375 34.953125 31.074219 34.21875 27.1875 C 33.488281 23.296875 34.457031 19.53125 38.050781 15.9375 C 41.929688 12.0625 47.4375 9.988281 52.792969 10.023438 Z M 34.265625 33.003906 C 35.621094 35.519531 37.511719 37.945313 39.78125 40.21875 C 42.054688 42.488281 44.480469 44.378906 46.996094 45.734375 L 25.363281 67.363281 C 21.839844 70.886719 16.160156 70.886719 12.636719 67.363281 C 9.113281 63.839844 9.113281 58.160156 12.636719 54.636719 Z M 34 40 C 33.449219 40 33 40.449219 33 41 C 33 41.550781 33.449219 42 34 42 C 34.550781 42 35 41.550781 35 41 C 35 40.449219 34.550781 40 34 40 Z M 31 43 C 30.449219 43 30 43.449219 30 44 C 30 44.550781 30.449219 45 31 45 C 31.550781 45 32 44.550781 32 44 C 32 43.449219 31.550781 43 31 43 Z M 39 45 C 38.449219 45 38 45.449219 38 46 C 38 46.550781 38.449219 47 39 47 C 39.550781 47 40 46.550781 40 46 C 40 45.449219 39.550781 45 39 45 Z M 28 46 C 27.449219 46 27 46.449219 27 47 C 27 47.550781 27.449219 48 28 48 C 28.550781 48 29 47.550781 29 47 C 29 46.449219 28.550781 46 28 46 Z M 36 48 C 35.449219 48 35 48.449219 35 49 C 35 49.550781 35.449219 50 36 50 C 36.550781 50 37 49.550781 37 49 C 37 48.449219 36.550781 48 36 48 Z M 25 49 C 24.449219 49 24 49.449219 24 50 C 24 50.550781 24.449219 51 25 51 C 25.550781 51 26 50.550781 26 50 C 26 49.449219 25.550781 49 25 49 Z M 33 51 C 32.449219 51 32 51.449219 32 52 C 32 52.550781 32.449219 53 33 53 C 33.550781 53 34 52.550781 34 52 C 34 51.449219 33.550781 51 33 51 Z M 22 52 C 21.449219 52 21 52.449219 21 53 C 21 53.550781 21.449219 54 22 54 C 22.550781 54 23 53.550781 23 53 C 23 52.449219 22.550781 52 22 52 Z M 30 54 C 29.449219 54 29 54.449219 29 55 C 29 55.550781 29.449219 56 30 56 C 30.550781 56 31 55.550781 31 55 C 31 54.449219 30.550781 54 30 54 Z M 19 56 C 16.25 56 14 58.25 14 61 C 14 63.75 16.25 66 19 66 C 21.75 66 24 63.75 24 61 C 24 58.25 21.75 56 19 56 Z M 27 57 C 26.449219 57 26 57.449219 26 58 C 26 58.550781 26.449219 59 27 59 C 27.550781 59 28 58.550781 28 58 C 28 57.449219 27.550781 57 27 57 Z M 19 58 C 20.667969 58 22 59.332031 22 61 C 22 62.667969 20.667969 64 19 64 C 17.332031 64 16 62.667969 16 61 C 16 59.332031 17.332031 58 19 58 Z"/></svg>